<svg width="246" height="28" viewBox="0 0 246 28" fill="none" xmlns="http://www.w3.org/2000/svg">
<path d="M67.9363 10.8892H52.6947V13.9692H65.7848V17.2077H52.6947V23.1187H48.7088V7.26563H67.9363V10.8892ZM75.9394 7.26563H91.8377V23.1187H87.8518V20.0839H76.5962V23.1187H72.6103V10.5721L75.9394 7.26563ZM77.7512 10.9798L76.5962 12.1121V16.8227H87.8518V10.9798H77.7512ZM113.701 7.26563H117.687V23.1187H114.856L101.744 12.9048V23.1187H97.7577V7.26563H100.611L113.701 17.4795V7.26563ZM142.837 10.8892H127.595V13.9692H140.685V17.2077H127.595V23.1187H123.609V7.26563H142.837V10.8892ZM155.731 10.8892H153.376V19.4951H155.731V23.1187H147.058V19.4951H149.39V10.8892H147.058V7.26563H155.731V10.8892ZM176.946 7.26563H180.932V23.1187H178.101L164.988 12.9048V23.1187H161.003V7.26563H163.856L176.946 17.4795V7.26563ZM194.916 10.8892H192.561V19.4951H194.916V23.1187H186.242V19.4951H188.575V10.8892H186.242V7.26563H194.916V10.8892ZM219.166 7.26563V10.8892H210.65V23.1187H206.665V10.8892H198.965V7.26563H219.166ZM240.87 7.26563H245.626L240.643 16.1433H236.023V23.1187H232.015V16.1433H227.757L222.775 7.26563H227.531L230.565 12.4292H237.835L240.87 7.26563Z" fill="white"/>
<path fill-rule="evenodd" clip-rule="evenodd" d="M29.0391 0L16.3266 6.92638L20.5682 13.7827L33.0702 6.04843L31.2864 16.3788L24.8058 20.6435L29.0096 27.3752L39.3488 20.7882L41.1326 7.19286L29.0391 0Z" fill="#9969FF"/>
<path fill-rule="evenodd" clip-rule="evenodd" d="M12.0935 27.5708L24.806 20.6444L20.5644 13.7881L8.06233 21.5224L9.84613 11.192L16.3267 6.92727L12.123 0.195633L1.78379 6.78265L0 20.3779L12.0935 27.5708Z" fill="white"/>
</svg>
